<?xml version="1.0" encoding="utf-8"?>
<!-- Generator: Adobe Illustrator 18.1.1, SVG Export Plug-In . SVG Version: 6.00 Build 0)  -->
<svg version="1.1" id="Ebene_1" xmlns="http://www.w3.org/2000/svg" xmlns:xlink="http://www.w3.org/1999/xlink" x="0px" y="0px"
	 viewBox="0 0 240 54.4" enable-background="new 0 0 240 54.4" xml:space="preserve">
<path fill="#66CC66" d="M45.4,8.8C34.5,3.6,17.2,0.1,17.2,0.1C9.8-1.1,10.9,7.9,11,13.9c0,0.5,0.1,0.9,0.1,1.4
	c5.3,1,13.4,2.7,19.9,5c7.7,2.8,6.6,5.6,6.3,10.9c-0.2,3.3-0.3,9.5,0.8,14.5c5.2,0.9,9.4,1.3,8.9-0.2c-4.3-4.9-0.1-20.2,1.2-23.2
	C49.2,19.5,53.3,12.6,45.4,8.8z"/>
<path fill="#66CC66" d="M40.1,53.4c-4.4-3.8-4.2-16-4-21.3s1.5-8.1-6.3-10.9c-10.4-3.7-25.4-6-25.4-6c-6.2-0.8-4.4,5.7-3.7,10.2
	c1.2,6.8,3.7,15,5.4,19c1.9,4.4,6,4.9,6,4.9S44.5,57.2,40.1,53.4z"/>
<g>
	<path fill="#232C39" d="M66.4,43.5c-3.7,0-6.6-0.8-7.6-1.2l0.3-1.9c1.3,0.4,4.3,1.2,6.8,1.2c4,0,6.2-1.1,6.2-3.9
		c0-2.5-1.9-3.8-6-4.4c-5.5-0.8-7.7-2.9-7.7-7.3c0-4.5,3-6.9,9-6.9c3.7,0,6.4,0.8,7.3,1.2l-0.3,1.8c-0.9-0.3-3.9-1.1-6.6-1.1
		c-4.3,0-5.8,1.4-5.8,3.9c0,2.4,1.5,3.2,5.6,3.8c5.8,0.9,8.2,2.9,8.2,7.5C75.8,41.1,73.2,43.5,66.4,43.5z"/>
	<path fill="#232C39" d="M100.1,43h-4.8V31.1c0-8.1-1.1-9.9-5.3-9.9c-1.8,0-3.9,0.5-4.7,0.8V43h-4.8V10.1h4.8V20
		c0.7-0.3,3.5-0.9,5.6-0.9c7.9,0,9.2,2.9,9.2,11.9L100.1,43L100.1,43z"/>
	<path fill="#232C39" d="M125.1,19.7l-9.8,24.4c-3.1,7.7-4.3,9-7.4,9c-1.2,0-2.6-0.1-2.9-0.2l0.3-2c0.4,0.2,1.6,0.3,2.5,0.3
		c1.9,0,3-1.2,4.9-6.1l0.7-1.9l-9.7-23.4h5.3l6.9,18l7.1-18L125.1,19.7L125.1,19.7z"/>
	<path fill="#232C39" d="M140.1,11.7c-0.4-0.1-1.6-0.3-2.8-0.3c-3.4,0-3.9,2.9-3.9,6.4v1.9h6.3v1.9h-6.3V43h-4.8V18.3
		c0-4.6,0.7-8.7,8.1-8.7c1.4,0,3.3,0.3,3.7,0.4L140.1,11.7z"/>
	<path fill="#232C39" d="M156.2,43.1c-0.5,0.2-2.5,0.4-4.1,0.4c-6.6,0-7.7-2.5-7.7-7.3v-22h4.8v5.5h6.3v1.9h-6.3v15.1
		c0,3.6,0.7,4.9,3.7,4.9c1,0,2.6-0.2,3-0.3L156.2,43.1z"/>
	<path fill="#232C39" d="M171.3,43.5c-2.4,0-4.6-0.5-5.8-0.9v9.9h-4.8V20.7c2-0.7,5.7-1.5,10.4-1.5c7.8,0,10.3,4,10.3,11.9
		C181.4,39.3,178.1,43.5,171.3,43.5z M170.7,21.1c-2.3,0-4.2,0.4-5.2,0.7v19c1,0.4,3.1,0.8,5.2,0.8c5.4,0,5.7-5.2,5.7-10.5
		C176.5,26,176,21.1,170.7,21.1z"/>
	<path fill="#232C39" d="M190.9,43h-4.8V10.1h4.8V43z"/>
	<path fill="#232C39" d="M214.7,42c-2.3,0.7-6,1.5-10,1.5c-7.2,0-9.4-2.1-9.4-6.9c0-4.1,2.7-7.2,11.6-7.2h3v-2.7
		c0-3.6-1-5.6-5.8-5.6c-2,0-5.7,0.8-6.5,1.1l-0.3-1.9c0.8-0.2,4.5-1.2,8.5-1.2c6.4,0,8.8,2,8.8,7.4V42z M210,31.1h-2.5
		c-6.4,0-7.5,2.3-7.5,5.5c0,3.4,0.9,5.1,4.9,5.1c1.7,0,3.7-0.4,5-0.8L210,31.1L210,31.1z"/>
	<path fill="#232C39" d="M240,43h-4.8V31.1c0-8.1-1.1-9.9-5.3-9.9c-1.6,0-3.4,0.4-4.7,0.7v21.1h-4.8V20.7c2.1-0.7,5.9-1.5,9.7-1.5
		c8.4,0,9.8,2.8,9.8,11.9V43z"/>
</g>
</svg>
